<svg width="54" height="54" viewBox="0 0 54 54" fill="none" xmlns="http://www.w3.org/2000/svg">
<circle cx="27" cy="27" r="27" fill="black"/>
<path d="M33.6667 40.3333H20.3333C18.8606 40.3333 17.6667 39.1394 17.6667 37.6667V20.3333H15V17.6667H20.3333V16.3333C20.3333 14.8606 21.5272 13.6667 23 13.6667H31C32.4728 13.6667 33.6667 14.8606 33.6667 16.3333V17.6667H39V20.3333H36.3333V37.6667C36.3333 39.1394 35.1394 40.3333 33.6667 40.3333ZM20.3333 20.3333V37.6667H33.6667V20.3333H20.3333ZM23 16.3333V17.6667H31V16.3333H23ZM31 35H28.3333V23H31V35ZM25.6667 35H23V23H25.6667V35Z" fill="white"/>
</svg>
