<svg width="54" height="54" viewBox="0 0 54 54" fill="none" xmlns="http://www.w3.org/2000/svg">
<circle cx="27" cy="27" r="27" fill="#C0230E"/>
<path d="M16.8933 38.4387C16.5193 38.438 16.1627 38.2803 15.9107 38.004C15.6539 37.7299 15.5263 37.3593 15.56 36.9853L15.8867 33.3933L30.9773 18.308L35.6933 23.0227L20.6067 38.1067L17.0147 38.4333C16.9733 38.4373 16.932 38.4387 16.8933 38.4387ZM36.6347 22.08L31.92 17.3653L34.748 14.5373C34.9981 14.287 35.3374 14.1463 35.6913 14.1463C36.0452 14.1463 36.3846 14.287 36.6347 14.5373L39.4627 17.3653C39.713 17.6154 39.8537 17.9548 39.8537 18.3087C39.8537 18.6625 39.713 19.0019 39.4627 19.252L36.636 22.0787L36.6347 22.08Z" fill="white"/>
</svg>
