<svg width="39" height="39" viewBox="0 0 39 39" fill="none" xmlns="http://www.w3.org/2000/svg">
<path d="M20.75 38.25C11.085 38.25 3.25 30.415 3.25 20.75C3.25 11.085 11.085 3.25 20.75 3.25C30.415 3.25 38.25 11.085 38.25 20.75C38.2394 30.4106 30.4106 38.2394 20.75 38.25ZM6.75 21.051C6.8328 28.7532 13.1219 34.9417 20.8244 34.9005C28.5269 34.8589 34.7492 28.6031 34.7492 20.9005C34.7492 13.1979 28.5269 6.9421 20.8244 6.9005C13.1219 6.8593 6.8328 13.0478 6.75 20.75V21.051ZM22.5 29.5H19V22.5H12V19H19V12H22.5V19H29.5V22.5H22.5V29.5Z" fill="#C0230E"/>
</svg>
