<svg width="337" height="230" viewBox="0 0 337 230" fill="none" xmlns="http://www.w3.org/2000/svg">
<g filter="url(#filter0_d_19_1573)">
<ellipse cx="150.152" cy="111" rx="120.946" ry="111" fill="white"/>
</g>
<path d="M42.3982 141.338C44.5745 147.819 47.4298 154.029 50.8883 159.897C69.9258 192.198 107.238 214.148 150.152 214.148C200.862 214.148 243.75 183.499 257.906 141.338M42.3982 80.6624C43.6271 77.0023 45.0725 73.429 46.7207 69.955C64.0592 33.4108 103.844 7.85211 150.152 7.85211C200.862 7.85211 243.75 38.5012 257.906 80.6624" stroke="#D03A31" stroke-width="2"/>
<g filter="url(#filter1_d_19_1573)">
<path d="M34.0159 87.6051H9.99634V92.9977H19.2776V122.238H24.7346V92.9977H34.0159V87.6051ZM58.2288 122.238H64.1155L47.8303 86.8961H47.5081L31.2229 122.238H37.1096L39.4729 116.974H55.8655L58.2288 122.238ZM41.5784 112.312L47.6799 98.777L53.76 112.312H41.5784ZM76.8772 122.818C83.9026 122.818 89.2307 118.865 89.2307 112.72C89.2307 107.263 84.9768 104.621 79.4983 102.214C75.2874 100.41 72.0862 99.443 72.0862 96.736C72.0862 94.2867 74.6213 92.3102 77.801 92.3102C80.3147 92.3102 82.6995 93.6207 83.7737 95.9625L87.8127 93.1696C86.3948 89.3668 82.6995 86.9821 77.7581 86.9821C71.5276 86.9821 66.6077 90.9352 66.6077 96.6071C66.6077 102.043 71.1194 104.148 75.1799 105.953C79.219 107.693 83.7737 109.627 83.7737 112.828C83.7737 115.47 80.8303 117.339 76.9417 117.339C73.6116 117.339 70.7327 115.793 69.1858 113.086L64.8889 116.158C66.8655 120.154 71.1838 122.818 76.8772 122.818ZM115.614 87.6051H91.594V92.9977H100.875V122.238H106.332V92.9977H115.614V87.6051ZM128.612 122.238H134.004V107.435L145.498 87.6051H139.375L131.297 101.398L123.24 87.6051H117.117L128.612 107.435V122.238ZM183.934 87.6051H159.914V92.9977H169.196V122.238H174.653V92.9977H183.934V87.6051ZM188.274 122.238H193.709V87.6051H188.274V122.238ZM233.906 86.8531L217.364 112.033L200.799 86.8531H200.391V122.238H205.826V103.009L217.342 121.658H217.385L228.879 103.031V122.238H234.315V86.8531H233.906ZM261.621 92.9547V87.6051H240.996V122.238H261.621V116.824H246.432V107.242H259.537V101.828H246.432V92.9547H261.621ZM277.283 122.818C284.309 122.818 289.637 118.865 289.637 112.72C289.637 107.263 285.383 104.621 279.905 102.214C275.694 100.41 272.492 99.443 272.492 96.736C272.492 94.2867 275.028 92.3102 278.207 92.3102C280.721 92.3102 283.106 93.6207 284.18 95.9625L288.219 93.1696C286.801 89.3668 283.106 86.9821 278.164 86.9821C271.934 86.9821 267.014 90.9352 267.014 96.6071C267.014 102.043 271.526 104.148 275.586 105.953C279.625 107.693 284.18 109.627 284.18 112.828C284.18 115.47 281.237 117.339 277.348 117.339C274.018 117.339 271.139 115.793 269.592 113.086L265.295 116.158C267.272 120.154 271.59 122.818 277.283 122.818Z" fill="black"/>
</g>
<line y1="129.166" x2="300.304" y2="129.166" stroke="black" stroke-width="1.5"/>
<path d="M73.5908 145.354V142.771H63.7471V159.361H66.3413V152.358H72.5962V149.774H66.3413V145.354H73.5908ZM87.936 159.341L83.127 152.727C85.0239 152.112 86.3979 150.256 86.3979 148.123C86.3979 145.18 83.8755 142.812 80.7993 142.812H75.6621L75.6724 159.341H78.2666V152.942H80.2969L84.7471 159.341H87.936ZM78.2563 150.789V145.385H80.8608C82.3989 145.385 83.7217 146.523 83.7217 148.062C83.7217 149.538 82.4194 150.799 80.8608 150.789H78.2563ZM99.5332 145.365V142.812H89.6895V159.341H99.5332V156.757H92.2837V152.184H98.5386V149.6H92.2837V145.365H99.5332ZM107.008 159.618C110.361 159.618 112.904 157.731 112.904 154.798C112.904 152.194 110.874 150.933 108.259 149.784C106.25 148.923 104.722 148.461 104.722 147.169C104.722 146 105.932 145.057 107.449 145.057C108.649 145.057 109.787 145.683 110.3 146.8L112.228 145.467C111.551 143.652 109.787 142.514 107.429 142.514C104.455 142.514 102.107 144.401 102.107 147.108C102.107 149.702 104.26 150.707 106.198 151.568C108.126 152.399 110.3 153.322 110.3 154.85C110.3 156.111 108.895 157.003 107.039 157.003C105.45 157.003 104.076 156.265 103.337 154.973L101.287 156.439C102.23 158.346 104.291 159.618 107.008 159.618ZM124.881 142.812V149.784H117.724V142.812H115.14V159.341H117.724V152.358H124.881V159.341H127.475V142.812H124.881ZM150.598 157.075C149.839 157.075 148.813 156.613 147.686 155.854C148.332 154.562 148.721 152.942 148.762 151.045L146.322 151.076C146.271 152.286 146.035 153.373 145.635 154.265C142.938 151.896 140.375 148.574 140.375 146.657C140.375 145.611 141.144 144.801 142.097 144.801C143.03 144.801 143.851 145.58 143.974 146.585L146.486 146.113C146.178 144.134 144.415 142.401 142.179 142.401C139.708 142.401 137.811 144.514 137.811 146.564C137.811 147.487 138.19 148.574 138.816 149.733C137.35 150.594 136.027 152.501 136.027 154.501C136.027 156.941 137.934 159.659 141.677 159.659C143.522 159.659 145.143 158.992 146.363 157.751C147.942 158.808 149.449 159.474 150.587 159.484L150.598 157.075ZM141.543 157.116C139.544 157.116 138.488 155.906 138.488 154.337C138.488 153.26 139.062 152.337 140.046 151.64C141.205 153.229 142.712 154.819 144.281 156.152C143.543 156.777 142.62 157.116 141.543 157.116ZM163.589 159.618C166.942 159.618 169.485 157.731 169.485 154.798C169.485 152.194 167.455 150.933 164.84 149.784C162.831 148.923 161.303 148.461 161.303 147.169C161.303 146 162.513 145.057 164.03 145.057C165.23 145.057 166.368 145.683 166.881 146.8L168.809 145.467C168.132 143.652 166.368 142.514 164.01 142.514C161.036 142.514 158.688 144.401 158.688 147.108C158.688 149.702 160.841 150.707 162.779 151.568C164.707 152.399 166.881 153.322 166.881 154.85C166.881 156.111 165.476 157.003 163.62 157.003C162.031 157.003 160.657 156.265 159.918 154.973L157.868 156.439C158.811 158.346 160.872 159.618 163.589 159.618ZM171.721 159.341H174.315V142.812H171.721V159.341ZM193.5 142.453L185.604 154.47L177.699 142.453H177.504V159.341H180.098V150.164L185.594 159.064H185.615L191.101 150.174V159.341H193.695V142.453H193.5ZM196.884 159.341H199.478V153.609H202.411C205.61 153.609 208.225 151.209 208.225 148.267C208.225 145.262 205.61 142.812 202.411 142.812H196.884V159.341ZM202.411 151.045L199.478 151.035V145.385H202.411C204.185 145.385 205.63 146.667 205.63 148.246C205.63 149.794 204.185 151.056 202.411 151.045ZM212.89 156.757V142.812H210.296V159.341H220.263V156.757H212.89ZM232.178 145.365V142.812H222.334V159.341H232.178V156.757H224.928V152.184H231.183V149.6H224.928V145.365H232.178Z" fill="black"/>
<defs>
<filter id="filter0_d_19_1573" x="25.2065" y="0" width="249.891" height="230" filterUnits="userSpaceOnUse" color-interpolation-filters="sRGB">
<feFlood flood-opacity="0" result="BackgroundImageFix"/>
<feColorMatrix in="SourceAlpha" type="matrix" values="0 0 0 0 0 0 0 0 0 0 0 0 0 0 0 0 0 0 127 0" result="hardAlpha"/>
<feOffset dy="4"/>
<feGaussianBlur stdDeviation="2"/>
<feComposite in2="hardAlpha" operator="out"/>
<feColorMatrix type="matrix" values="0 0 0 0 0 0 0 0 0 0 0 0 0 0 0 0 0 0 0.25 0"/>
<feBlend mode="normal" in2="BackgroundImageFix" result="effect1_dropShadow_19_1573"/>
<feBlend mode="normal" in="SourceGraphic" in2="effect1_dropShadow_19_1573" result="shape"/>
</filter>
<filter id="filter1_d_19_1573" x="5.99634" y="86.8531" width="287.641" height="43.9648" filterUnits="userSpaceOnUse" color-interpolation-filters="sRGB">
<feFlood flood-opacity="0" result="BackgroundImageFix"/>
<feColorMatrix in="SourceAlpha" type="matrix" values="0 0 0 0 0 0 0 0 0 0 0 0 0 0 0 0 0 0 127 0" result="hardAlpha"/>
<feOffset dy="4"/>
<feGaussianBlur stdDeviation="2"/>
<feComposite in2="hardAlpha" operator="out"/>
<feColorMatrix type="matrix" values="0 0 0 0 0 0 0 0 0 0 0 0 0 0 0 0 0 0 0.25 0"/>
<feBlend mode="normal" in2="BackgroundImageFix" result="effect1_dropShadow_19_1573"/>
<feBlend mode="normal" in="SourceGraphic" in2="effect1_dropShadow_19_1573" result="shape"/>
</filter>
</defs>
</svg>
